<?xml version="1.0" encoding="utf-8"?>
<!-- Generator: Adobe Illustrator 26.0.1, SVG Export Plug-In . SVG Version: 6.00 Build 0)  -->
<svg version="1.1" id="Layer_1" xmlns="http://www.w3.org/2000/svg" xmlns:xlink="http://www.w3.org/1999/xlink" x="0px" y="0px"
	 viewBox="0 0 20.1 19.7" style="enable-background:new 0 0 20.1 19.7;" xml:space="preserve">
<!-- <style type="text/css">
	.st0{fill:#3B3937;}
</style> -->
<g id="Buy" transform="translate(0.117 0.117)">
	<g id="Stroke_1">
		<path class="st0" d="M5.4,19.6c-0.4,0-0.8-0.2-1.1-0.4c-0.3-0.3-0.4-0.7-0.4-1.1c0-0.8,0.7-1.5,1.5-1.5c0,0,0,0,0,0
			c0.8,0,1.5,0.7,1.5,1.5c0,0.4-0.2,0.8-0.4,1.1C6.2,19.4,5.8,19.6,5.4,19.6C5.4,19.6,5.4,19.6,5.4,19.6z M5.4,18.1
			C5.4,18.1,5.4,18.1,5.4,18.1L5.4,18.1z"/>
	</g>
	<g id="Stroke_3">
		<path class="st0" d="M16.7,19.6c-0.8,0-1.5-0.7-1.5-1.5c0-0.8,0.7-1.5,1.5-1.5c0,0,0,0,0,0c0.8,0,1.5,0.7,1.5,1.5
			C18.2,18.9,17.5,19.6,16.7,19.6z M16.7,18.1C16.7,18.1,16.7,18.1,16.7,18.1L16.7,18.1z"/>
	</g>
	<path class="st0" d="M19.6,4.7c-0.3-0.4-0.8-0.7-1.4-0.8c-0.1,0-0.2,0-0.3,0H3.8L3.6,1c0-0.3-0.3-0.6-0.6-0.7L0.9,0
		C0.5-0.1,0.1,0.2,0,0.6C-0.1,1,0.2,1.4,0.6,1.5l1.5,0.3L3,12.6C3.2,14,4.3,15,5.6,15c0,0,0,0,0,0h10.9c1.3,0,2.4-0.9,2.5-2.2
		L20,6.2C20.1,5.7,19.9,5.1,19.6,4.7z M14.9,9h-2.8c-0.4,0-0.8-0.3-0.8-0.8c0-0.4,0.3-0.8,0.8-0.8h2.8c0.4,0,0.8,0.3,0.8,0.8
		C15.6,8.7,15.3,9,14.9,9z"/>
</g>
</svg>
