<?xml version="1.0" encoding="utf-8"?>
<!-- Generator: Adobe Illustrator 26.0.1, SVG Export Plug-In . SVG Version: 6.00 Build 0)  -->
<svg version="1.1" id="Layer_1" xmlns="http://www.w3.org/2000/svg" xmlns:xlink="http://www.w3.org/1999/xlink" x="0px" y="0px"
	 viewBox="0 0 21.5 21.5" style="enable-background:new 0 0 21.5 21.5;" xml:space="preserve">
<!-- <style type="text/css">
	.st0{fill:#3B3937;stroke:#3B3937;stroke-miterlimit:10;}
</style> -->
<g id="Category" transform="translate(0.75 0.75)">
	<path id="Stroke_1" class="st0" d="M14.3,0h3.3C18.9,0,20,1.1,20,2.5v3.3c0,1.4-1.1,2.5-2.4,2.5h-3.3c-1.4,0-2.5-1.1-2.4-2.5V2.5
		C11.8,1.1,12.9,0,14.3,0z"/>
	<path id="Stroke_3" class="st0" d="M2.4,0h3.3c1.4,0,2.5,1.1,2.4,2.5v3.3c0,1.4-1.1,2.5-2.4,2.5H2.4C1.1,8.2,0,7.1,0,5.8V2.5
		C0,1.1,1.1,0,2.4,0z"/>
	<path id="Stroke_5" class="st0" d="M2.4,11.8h3.3c1.4,0,2.5,1.1,2.4,2.5c0,0,0,0,0,0v3.3c0,1.4-1.1,2.5-2.4,2.5H2.4
		C1.1,20,0,18.9,0,17.5v-3.3C0,12.9,1.1,11.8,2.4,11.8C2.4,11.8,2.4,11.8,2.4,11.8z"/>
	<path id="Stroke_7" class="st0" d="M14.3,11.8h3.3c1.4,0,2.5,1.1,2.4,2.5v3.3c0,1.4-1.1,2.5-2.4,2.5c0,0,0,0,0,0h-3.3
		c-1.4,0-2.5-1.1-2.4-2.5v-3.3C11.8,12.9,12.9,11.8,14.3,11.8C14.3,11.8,14.3,11.8,14.3,11.8z"/>
</g>
</svg>
