<?xml version="1.0" encoding="utf-8"?>
<!-- Generator: Adobe Illustrator 26.0.1, SVG Export Plug-In . SVG Version: 6.00 Build 0)  -->
<svg version="1.1" id="Layer_1" xmlns="http://www.w3.org/2000/svg" xmlns:xlink="http://www.w3.org/1999/xlink" x="0px" y="0px"
	 viewBox="0 0 61 61" style="enable-background:new 0 0 61 61;" xml:space="preserve">
<style type="text/css">
	.st0{fill:#EB671B;}
</style>
<path class="st0" d="M39.5,35.6c-0.5-0.4-1-0.7-1.6-0.8c-0.2-0.1-0.5-0.1-0.7-0.1c-1,0-2,0.4-2.6,1.2l-0.9,1
	c-0.3,0.4-0.6,0.8-0.7,1.2l-0.1,0.2c-0.1,0.1-0.2,0.3-0.3,0.3c-0.1,0.1-0.3,0.1-0.4,0l-0.2-0.1c-4.1-1.6-7.5-4.7-9.5-8.7l-0.1-0.3
	c-0.1-0.1-0.1-0.3,0-0.5c0.1-0.2,0.2-0.3,0.4-0.3l0.3-0.1c0.6-0.2,1.2-0.5,1.6-1l0.9-1c0.6-0.7,1-1.6,0.9-2.6c0-0.1,0-0.2,0-0.3
	c-0.1-0.8-0.5-1.6-1.1-2.2l-1.5-1.4c-0.7-0.6-1.5-0.9-2.4-0.9c-0.2,0-0.4,0-0.6,0.1c-0.6,0.1-1.2,0.4-1.7,0.8
	c-0.1,0.1-0.2,0.2-0.3,0.3l-0.9,1c-0.1,0.1-0.2,0.2-0.3,0.4c0,0,0,0,0,0.1l0,0c0,0,0,0-0.1,0h0c-1,1.1-1.3,2.7-1,4.1
	c0.1,0.5,0.2,1.1,0.4,1.6c2.5,9,10.3,15.6,19.6,16.5c0.9,0.1,1.9,0,2.7-0.4c0.2-0.1,0.3-0.2,0.5-0.2c0.3-0.2,0.6-0.4,0.9-0.7l0.9-1
	c0.1-0.2,0.3-0.3,0.4-0.5c0.2-0.3,0.3-0.7,0.4-1c0.3-1.3-0.1-2.6-1.1-3.5L39.5,35.6z M30.8,15.6c-0.4,0-0.7,0.3-0.7,0.7
	s0.3,0.7,0.7,0.7c6.9,0,12.5,5.6,12.5,12.5c0,0.4,0.3,0.7,0.7,0.7c0.4,0,0.7-0.3,0.7-0.7C44.6,21.8,38.4,15.6,30.8,15.6z M38.6,29.6
	c0,0.4,0.3,0.7,0.7,0.7c0.4,0,0.7-0.3,0.7-0.7c0-5.1-4.2-9.3-9.3-9.3c-0.4,0-0.7,0.3-0.7,0.7c0,0.4,0.3,0.7,0.7,0.7
	C35,21.6,38.6,25.2,38.6,29.6z M30.5,0C13.7,0,0,13.7,0,30.5S13.7,61,30.5,61C47.3,61,61,47.3,61,30.5S47.3,0,30.5,0z M43.1,40.7
	c-0.1,0.5-0.3,0.9-0.6,1.4c-0.1,0.2-0.3,0.5-0.5,0.7l-0.9,1c-0.3,0.4-0.7,0.7-1.1,0.9c-0.2,0.1-0.4,0.2-0.6,0.3
	c-0.8,0.4-1.7,0.5-2.6,0.5c-0.2,0-0.4,0-0.7,0c-9.8-0.9-18-7.8-20.6-17.3c-0.2-0.6-0.3-1.2-0.4-1.7c-0.5-1.8,0-3.8,1.3-5.1
	c0.1-0.2,0.2-0.3,0.4-0.4l0.9-1c0.1-0.1,0.3-0.3,0.4-0.4c0.6-0.6,1.4-0.9,2.3-1.1c0.3,0,0.5-0.1,0.8-0.1c1.2,0,2.3,0.4,3.1,1.2
	l1.5,1.4c0.8,0.7,1.4,1.8,1.5,2.9c0,0.1,0,0.2,0,0.4c0.1,1.2-0.4,2.5-1.2,3.4l-0.9,1c-0.5,0.5-1.1,1-1.8,1.2
	c1.8,3.5,4.8,6.2,8.4,7.7c0.2-0.5,0.5-0.9,0.8-1.3l0.9-1c0.9-1,2.1-1.5,3.5-1.5c0.3,0,0.7,0,1,0.1c0.8,0.2,1.6,0.5,2.2,1.1l1.5,1.4
	C43,37.3,43.5,39,43.1,40.7z M29.4,20.9c0-0.7,0.6-1.2,1.2-1.2c5.4,0,9.8,4.4,9.9,9.9c0,0.7-0.6,1.2-1.2,1.2c-0.7,0-1.2-0.6-1.2-1.2
	c0-4.1-3.3-7.4-7.4-7.4C30,22.2,29.4,21.6,29.4,20.9z M44,30.6c-0.7,0-1.2-0.6-1.2-1.2c0-6.6-5.3-11.9-11.9-11.9
	c-0.7,0-1.2-0.6-1.2-1.2c0-0.7,0.6-1.2,1.2-1.2c8,0,14.4,6.4,14.4,14.4C45.2,30.1,44.6,30.6,44,30.6z"/>
</svg>
