<svg id="Group_1434" data-name="Group 1434" xmlns="http://www.w3.org/2000/svg" xmlns:xlink="http://www.w3.org/1999/xlink" width="21" height="21.128" viewBox="0 0 21 21.128">
  <defs>
    <clipPath id="clip-path">
      <rect id="Rectangle_554" data-name="Rectangle 554" width="21" height="21.128" fill="#3b3937"/>
    </clipPath>
  </defs>
  <g id="Group_1433" data-name="Group 1433" clip-path="url(#clip-path)">
    <path id="Path_18" data-name="Path 18" d="M-177,295.5a10.446,10.446,0,0,0,.585-3.454,10.455,10.455,0,0,0-.585-3.455.918.918,0,0,0-.033-.094,10.52,10.52,0,0,0-9.883-6.951A10.518,10.518,0,0,0-196.8,288.5a.92.92,0,0,0-.033.094,10.455,10.455,0,0,0-.585,3.455,10.446,10.446,0,0,0,.585,3.454.8.8,0,0,0,.033.1,10.518,10.518,0,0,0,9.882,6.951,10.52,10.52,0,0,0,9.883-6.951.8.8,0,0,0,.033-.1Zm-9.915,5.541c-.4,0-1.045-.724-1.584-2.34a16.577,16.577,0,0,1-.62-2.652h4.407a16.486,16.486,0,0,1-.62,2.652c-.539,1.616-1.183,2.34-1.584,2.34Zm-2.386-6.5c-.072-.8-.11-1.64-.11-2.5s.038-1.694.11-2.5h4.772c.072.8.111,1.639.111,2.5s-.039,1.694-.111,2.5Zm-6.609-2.5a8.973,8.973,0,0,1,.353-2.5h4.747c-.071.819-.106,1.659-.106,2.5s.035,1.678.106,2.5h-4.747a8.984,8.984,0,0,1-.353-2.5Zm8.995-8.995c.4,0,1.045.724,1.584,2.34a16.477,16.477,0,0,1,.62,2.653h-4.407a16.474,16.474,0,0,1,.62-2.653c.539-1.616,1.184-2.34,1.584-2.34Zm3.9,6.5h4.747a8.974,8.974,0,0,1,.353,2.5,8.985,8.985,0,0,1-.353,2.5h-4.747c.071-.819.107-1.659.107-2.5s-.036-1.677-.107-2.5Zm4.158-1.505h-4.33a14.449,14.449,0,0,0-1.372-4.68,9.035,9.035,0,0,1,5.7,4.68Zm-10.406-4.68a14.45,14.45,0,0,0-1.371,4.68h-4.33a9.032,9.032,0,0,1,5.7-4.68Zm-5.7,12.684h4.33a14.456,14.456,0,0,0,1.371,4.68,9.031,9.031,0,0,1-5.7-4.68Zm10.4,4.68a14.455,14.455,0,0,0,1.372-4.68h4.33a9.035,9.035,0,0,1-5.7,4.68Zm0,0" transform="translate(197.415 -281.548)" fill="#3b3937"/>
  </g>
</svg>
