<?xml version="1.0" encoding="utf-8"?>
<!-- Generator: Adobe Illustrator 26.0.1, SVG Export Plug-In . SVG Version: 6.00 Build 0)  -->
<svg version="1.1" id="Layer_1" xmlns="http://www.w3.org/2000/svg" xmlns:xlink="http://www.w3.org/1999/xlink" x="0px" y="0px"
	 viewBox="0 0 61 61" style="enable-background:new 0 0 61 61;" xml:space="preserve">
<style type="text/css">
	.st0{fill:#EB671B;}
</style>
<g>
	<g>
		<path class="st0" d="M14.1,35.1h4v-8h-4V35.1z M36.3,23.8L36.3,23.8c-0.2,0-0.3,0.1-0.4,0.2c-0.1,0.1-0.2,0.2-0.2,0.4
			c0,0.1,0.1,0.3,0.2,0.4c1.7,1.6,2.7,3.9,2.7,6.3c0,2.4-1,4.7-2.7,6.3c-0.1,0.1-0.2,0.2-0.2,0.4c0,0.1,0.1,0.3,0.2,0.4
			c0.1,0.1,0.2,0.2,0.4,0.2c0.1,0,0.3,0,0.4-0.2c1.9-1.8,3-4.4,3-7.1c0-2.7-1.1-5.3-3-7.1C36.6,23.9,36.4,23.8,36.3,23.8z
			 M21.6,35.3l8.9,6V18.8l-8.9,8V35.3z M42.8,19.9c-0.2,0-0.3,0.1-0.4,0.2c-0.2,0.2-0.2,0.6,0,0.8c2.8,2.7,4.3,6.3,4.3,10.2
			c0,3.8-1.5,7.5-4.3,10.2l0,0c-0.1,0.1-0.2,0.2-0.2,0.4c0,0.1,0.1,0.3,0.2,0.4c0.2,0.2,0.6,0.2,0.8,0c3-2.9,4.6-6.8,4.6-11
			c0-4.1-1.7-8.1-4.6-11C43.1,20,43,19.9,42.8,19.9z M30.5,0C13.7,0,0,13.7,0,30.5S13.7,61,30.5,61S61,47.3,61,30.5S47.3,0,30.5,0z
			 M19.3,35.6c0,0.3-0.2,0.6-0.6,0.6h-5.1c-0.3,0-0.6-0.2-0.6-0.6v-9.1c0-0.3,0.2-0.6,0.6-0.6h5.1c0.3,0,0.6,0.2,0.6,0.6V35.6z
			 M31.6,42.4c0,0.2-0.1,0.4-0.3,0.5c-0.1,0-0.2,0.1-0.3,0.1c-0.1,0-0.2,0-0.3-0.1l-10-6.8c-0.2-0.1-0.2-0.3-0.2-0.5v-9.1
			c0-0.2,0.1-0.3,0.2-0.4l10-8.9c0.2-0.1,0.4-0.2,0.6-0.1c0.2,0.1,0.3,0.3,0.3,0.5V42.4z M37.4,38.9c-0.3,0.3-0.7,0.5-1.1,0.5h0
			c-0.4,0-0.9-0.2-1.2-0.5c-0.3-0.3-0.5-0.7-0.5-1.1c0-0.5,0.2-0.9,0.5-1.2c1.5-1.4,2.4-3.4,2.4-5.5c0-2.1-0.8-4.1-2.4-5.5
			c-0.3-0.3-0.5-0.7-0.5-1.2c0-0.4,0.2-0.9,0.5-1.2c0.3-0.3,0.7-0.5,1.2-0.5c0.4,0,0.9,0.2,1.2,0.5c2.2,2.1,3.4,4.9,3.4,7.9
			C40.8,34,39.6,36.9,37.4,38.9z M44,42.8c-0.3,0.3-0.7,0.5-1.2,0.5c-0.4,0-0.9-0.2-1.2-0.5c-0.3-0.3-0.5-0.7-0.5-1.2
			c0-0.4,0.2-0.9,0.5-1.2c2.5-2.5,4-5.8,4-9.4c0-3.5-1.4-6.9-4-9.4C41,21,41,20,41.6,19.3c0.6-0.7,1.7-0.7,2.3,0
			c3.2,3.1,5,7.3,5,11.7C48.9,35.5,47.2,39.7,44,42.8z"/>
	</g>
</g>
</svg>
