<?xml version="1.0" encoding="utf-8"?>
<!-- Generator: Adobe Illustrator 26.0.1, SVG Export Plug-In . SVG Version: 6.00 Build 0)  -->
<svg version="1.1" id="Layer_1" xmlns="http://www.w3.org/2000/svg" xmlns:xlink="http://www.w3.org/1999/xlink" x="0px" y="0px"
	 viewBox="0 0 20.5 19.5" style="enable-background:new 0 0 20.5 19.5;" xml:space="preserve">
<!-- <style type="text/css">
	.st0{fill:#3B3937;}
</style> -->
<path class="st0" d="M19.7,3.6c-0.8-1.6-2.1-2.7-3.8-3.2C14-0.3,12,0,10.3,1.1C8.6,0,6.5-0.3,4.6,0.4C3,0.9,1.7,2,0.8,3.6
	c-0.9,1.8-1.1,4-0.4,6.1c0.7,2,1.7,3.6,3.1,4.9c1.9,1.9,4,3.5,6.1,4.8c0,0,0,0,0,0l0.2,0.1c0.1,0.1,0.2,0.1,0.3,0.1s0.2,0,0.3-0.1
	l0.3-0.1c2.5-1.6,4.4-3.1,6.1-4.8c1.4-1.4,2.4-3.1,3.1-4.9C20.8,7.6,20.6,5.4,19.7,3.6z M16,8C16,8,15.9,8,16,8
	c-0.4,0-0.8-0.3-0.8-0.7c-0.1-0.8-0.6-1.5-1.4-1.8c-0.4-0.1-0.6-0.6-0.5-0.9c0.1-0.4,0.6-0.6,0.9-0.5c1.4,0.4,2.3,1.6,2.4,3.1
	C16.7,7.6,16.4,8,16,8z"/>
</svg>
