<?xml version="1.0" encoding="utf-8"?>
<!-- Generator: Adobe Illustrator 26.0.1, SVG Export Plug-In . SVG Version: 6.00 Build 0)  -->
<svg version="1.1" id="Layer_1" xmlns="http://www.w3.org/2000/svg" xmlns:xlink="http://www.w3.org/1999/xlink" x="0px" y="0px"
	 viewBox="0 0 61 61" style="enable-background:new 0 0 61 61;" xml:space="preserve">
<style type="text/css">
	.st0{fill:#EB671B;}
</style>
<path class="st0" d="M32.4,29.7l-8.6,1.7v0.4l8.6-1.7V29.7z M43.3,17.5l-4.8-1.1l-0.1,0.2l4.8,1.1L43.3,17.5z M22.3,41
	c0,0.2-0.1,0.3-0.2,0.4c-0.1,0.1-0.3,0.1-0.4,0.1c-0.3-0.1-0.6-0.1-1-0.1c-0.7,0-1.4,0.1-2,0.4c-1.8,0.7-3,2.1-2.6,3.2
	c0.3,0.5,0.8,0.9,1.4,0.9c0.9,0.1,1.8,0,2.7-0.3c1.6-0.6,2.8-1.8,2.7-2.8c0,0,0,0,0-0.1V34c0-0.2,0.2-0.4,0.4-0.5l9.6-1.8
	c0.1,0,0.3,0,0.4,0.1c0.1,0.1,0.2,0.2,0.2,0.4v6c0,0.1-0.1,0.3-0.2,0.4c-0.1,0.1-0.3,0.1-0.4,0.1c-1-0.2-2-0.1-3,0.3
	c-1.8,0.7-3,2.1-2.6,3.2c0.3,0.5,0.8,0.9,1.4,0.9c0.9,0.1,1.8,0,2.7-0.3c1.6-0.6,2.7-1.8,2.7-2.8c0,0,0,0,0-0.1V26l-11.7,2.3V41z
	 M22.8,31c0-0.2,0.2-0.4,0.4-0.5l9.6-1.8c0.1,0,0.3,0,0.4,0.1c0.1,0.1,0.2,0.2,0.2,0.4v1.3c0,0.2-0.2,0.4-0.4,0.5l-9.6,1.8
	c0,0-0.1,0-0.1,0c-0.1,0-0.2,0-0.3-0.1c-0.1-0.1-0.2-0.2-0.2-0.4V31z M30.5,0C13.7,0,0,13.7,0,30.5S13.7,61,30.5,61
	C47.3,61,61,47.3,61,30.5S47.3,0,30.5,0z M34.9,39.9C34.9,39.9,34.9,40,34.9,39.9c0,1.4-1.4,2.9-3.3,3.7c-1,0.4-2.1,0.5-3.2,0.4
	c-0.9-0.1-1.7-0.7-2.1-1.5c-0.6-1.5,0.8-3.5,3.2-4.4c0.9-0.4,1.9-0.5,3-0.4v-4.9l-8.6,1.7v8.2c0,1.4-1.3,2.9-3.3,3.7
	c-0.7,0.3-1.5,0.4-2.3,0.5c-0.3,0-0.6,0-0.9-0.1c-0.9-0.1-1.7-0.7-2.1-1.5c-0.6-1.6,0.8-3.5,3.2-4.4c0.9-0.4,1.9-0.5,3-0.4V27.9
	c0-0.2,0.2-0.4,0.4-0.5L34.3,25c0.1,0,0.3,0,0.4,0.1l0,0c0.1,0.1,0.2,0.2,0.2,0.4V39.9z M45.4,15.9l-3.2,7.4c0,0,0,0,0,0
	c-0.5,0.8-1.4,1.2-2.3,1.1c-0.1,0-0.1,0-0.2,0c-0.6,0-1.2-0.2-1.7-0.5c-0.4-0.2-0.7-0.7-0.7-1.2c0-0.9,1.2-1.6,2.6-1.5
	c0.6,0,1.1,0.2,1.6,0.5l1.1-2.5L37.7,18l-1.8,4.2l0,0c-0.5,0.8-1.5,1.3-2.5,1.1c-0.6,0-1.2-0.2-1.7-0.5c-0.4-0.2-0.7-0.7-0.7-1.2
	c0.1-0.5,0.4-0.9,0.8-1.1c0.5-0.3,1.1-0.4,1.8-0.4c0.6,0,1.1,0.2,1.6,0.5l2.8-6.4c0-0.1,0.2-0.2,0.3-0.1l7,1.6
	c0.1,0,0.1,0.1,0.2,0.1c0,0,0,0,0,0C45.4,15.8,45.4,15.9,45.4,15.9z M35.5,21c0,0.1-0.1,0.1-0.2,0.1c-0.1,0-0.1,0-0.2,0
	c-0.5-0.3-1-0.5-1.6-0.5c-0.5,0-1,0.1-1.5,0.3c-0.3,0.1-0.5,0.4-0.6,0.7c0,0.3,0.2,0.6,0.5,0.8c0.4,0.3,0.9,0.4,1.5,0.4
	c0.8,0.1,1.6-0.2,2-0.8l0,0l1.9-4.4c0-0.1,0.2-0.2,0.3-0.1l5.3,1.2c0.1,0,0.1,0.1,0.2,0.1c0,0.1,0,0.1,0,0.2l-1.3,3.1
	c0,0.1-0.1,0.1-0.2,0.1c-0.1,0-0.2,0-0.2,0c-0.5-0.3-1-0.5-1.6-0.5c-0.1,0-0.1,0-0.2,0c-1,0-1.9,0.5-1.9,1c0,0.3,0.2,0.6,0.5,0.8
	c0.4,0.3,0.9,0.4,1.5,0.4c0.8,0.1,1.6-0.2,2-0.8c0,0,0,0,0,0l3.1-7.1l-6.5-1.5L35.5,21z M43.6,17.1c0.1,0,0.1,0.1,0.2,0.1
	c0,0.1,0,0.1,0,0.2l-0.3,0.7c0,0.1-0.1,0.1-0.2,0.1c0,0,0,0-0.1,0L37.9,17c-0.1,0-0.1-0.1-0.2-0.1c0-0.1,0-0.1,0-0.2l0.3-0.7
	c0-0.1,0.2-0.2,0.3-0.1L43.6,17.1z"/>
</svg>
