<svg xmlns="http://www.w3.org/2000/svg" width="37.834" height="49.901" viewBox="0 0 37.834 49.901">
  <g id="PDF-file" transform="translate(-0.004 -0.005)">
    <g id="Group_3173" data-name="Group 3173" transform="translate(0.004 0.005)">
      <path id="Path_3226" data-name="Path 3226" d="M2.023,49.906h33.79a2.024,2.024,0,0,0,2.024-2.018V11.836A3.523,3.523,0,0,0,36.732,9.4L27.066.92A4.1,4.1,0,0,0,24.629,0H2.026A2.023,2.023,0,0,0,0,2.027V47.888A2.024,2.024,0,0,0,2.023,49.906ZM26.627,4.57l5.947,5.218H26.627ZM3.037,3.035H23.593V10.8a2.025,2.025,0,0,0,2.024,2.022H34.8V46.875H3.036V3.035Z" transform="translate(-0.004 -0.005)" fill="#1583d8"/>
    </g>
    <text id="PDF" transform="translate(5.735 30.056)" fill="#1583d8" font-size="13" font-family="SegoeUIBlack, Segoe UI"><tspan x="0" y="0">PDF</tspan></text>
  </g>
</svg>
