<?xml version="1.0" encoding="utf-8"?>
<!-- Generator: Adobe Illustrator 26.0.1, SVG Export Plug-In . SVG Version: 6.00 Build 0)  -->
<svg version="1.1" id="Layer_1" xmlns="http://www.w3.org/2000/svg" xmlns:xlink="http://www.w3.org/1999/xlink" x="0px" y="0px"
	 viewBox="0 0 61 61" style="enable-background:new 0 0 61 61;" xml:space="preserve">
<style type="text/css">
	.st0{fill:#EB671B;}
</style>
<path class="st0" d="M37.4,19.7L37.4,19.7c-0.1,0-0.2,0-0.2,0.1c-0.1,0.1-0.1,0.1-0.1,0.2c0,0.1,0,0.2,0.1,0.2c1.3,1.2,2,2.8,2,4.6
	c0,1.7-0.7,3.4-2,4.6c-0.1,0.1-0.1,0.2-0.1,0.2c0,0.1,0,0.2,0.1,0.2c0.1,0.1,0.1,0.1,0.2,0.1c0.1,0,0.2,0,0.2-0.1
	c1.4-1.3,2.2-3.1,2.2-5c0-1.9-0.8-3.7-2.2-5C37.6,19.7,37.5,19.7,37.4,19.7z M29.5,28.4v15.7l2.5,0V28.4c-0.4,0.2-0.8,0.2-1.3,0.2
	C30.3,28.7,29.9,28.6,29.5,28.4z M30.8,22.5L30.8,22.5C30.8,22.5,30.8,22.5,30.8,22.5c-1.4,0-2.5,1.1-2.5,2.5c0,1.4,1.1,2.5,2.5,2.5
	c1.4,0,2.5-1.1,2.5-2.5S32.1,22.5,30.8,22.5z M24.1,19.7L24.1,19.7c-0.1,0-0.2,0-0.2,0.1c-1.4,1.3-2.2,3.1-2.2,5
	c0,1.9,0.8,3.7,2.2,5C24,29.9,24,30,24.1,30c0.1,0,0.2,0,0.2-0.1c0.1-0.1,0.1-0.1,0.1-0.2c0-0.1,0-0.2-0.1-0.2c-1.3-1.2-2-2.8-2-4.6
	c0-1.7,0.7-3.4,2-4.6c0.1-0.1,0.1-0.1,0.1-0.2c0-0.1,0-0.2-0.1-0.2C24.3,19.7,24.2,19.7,24.1,19.7z M16.6,24.8
	c0-2.8,1.1-5.4,3.1-7.3c0,0,0,0,0,0c0.1-0.1,0.1-0.3,0-0.5c-0.1-0.1-0.1-0.1-0.2-0.1c-0.1,0-0.2,0-0.2,0.1c-2.1,2-3.3,4.9-3.3,7.8
	c0,2.9,1.2,5.8,3.3,7.8c0,0,0,0,0,0c0.1,0.1,0.3,0.1,0.5,0c0.1-0.1,0.1-0.1,0.1-0.2c0-0.1,0-0.2-0.1-0.2
	C17.7,30.2,16.6,27.6,16.6,24.8z M30.5,0C13.7,0,0,13.7,0,30.5C0,47.3,13.7,61,30.5,61C47.3,61,61,47.3,61,30.5
	C61,13.7,47.3,0,30.5,0z M20.4,33.3c-0.2,0.2-0.6,0.4-0.9,0.4c-0.3,0-0.6-0.1-0.9-0.4C16.3,31.1,15,28,15,24.8
	c0-3.2,1.3-6.3,3.6-8.5c0.5-0.5,1.3-0.5,1.8,0c0.5,0.5,0.5,1.3,0,1.8c-1.8,1.7-2.8,4.2-2.8,6.7c0,2.5,1,4.9,2.8,6.7
	c0.2,0.2,0.4,0.6,0.4,0.9C20.7,32.7,20.6,33,20.4,33.3z M25,28.7c0.2,0.2,0.4,0.6,0.4,0.9c0,0.3-0.1,0.6-0.3,0.9
	c-0.2,0.2-0.5,0.4-0.9,0.4h0c-0.3,0-0.6-0.1-0.9-0.3c-1.6-1.5-2.5-3.6-2.4-5.7c0-2.2,0.9-4.2,2.4-5.7c0.2-0.2,0.6-0.4,0.9-0.3
	c0.3,0,0.6,0.1,0.9,0.4c0.2,0.2,0.4,0.6,0.3,0.9c0,0.3-0.1,0.6-0.4,0.9c-1.1,1-1.7,2.4-1.7,3.9C23.3,26.3,23.9,27.7,25,28.7z
	 M33.2,27.7v17c0,0.3-0.3,0.6-0.6,0.6h-3.7c-0.3,0-0.6-0.3-0.6-0.6v-17c-0.8-0.7-1.2-1.7-1.2-2.7c0-2,1.6-3.6,3.6-3.6
	c2,0,3.6,1.6,3.6,3.6C34.4,26.1,34,27,33.2,27.7z M38.3,30.5c-0.2,0.2-0.5,0.3-0.9,0.3h0c-0.3,0-0.6-0.1-0.9-0.4
	c-0.2-0.2-0.3-0.5-0.3-0.9c0-0.3,0.1-0.7,0.4-0.9c1.1-1,1.7-2.4,1.7-3.9c0-1.5-0.6-2.9-1.7-3.9c-0.2-0.2-0.4-0.5-0.4-0.9
	c0-0.3,0.1-0.7,0.3-0.9c0.2-0.2,0.5-0.4,0.9-0.4c0.3,0,0.7,0.1,0.9,0.3c1.6,1.5,2.5,3.6,2.4,5.7C40.7,27,39.9,29.1,38.3,30.5z
	 M43,33.3c-0.2,0.2-0.5,0.4-0.9,0.4h0c-0.3,0-0.6-0.1-0.9-0.4c-0.2-0.2-0.4-0.5-0.4-0.9c0-0.3,0.1-0.7,0.4-0.9
	c1.8-1.7,2.8-4.2,2.8-6.7c0-2.5-1-4.9-2.8-6.7c-0.5-0.5-0.5-1.3,0-1.8c0.2-0.2,0.5-0.4,0.9-0.4c0.3,0,0.7,0.1,0.9,0.4
	c2.3,2.2,3.6,5.3,3.6,8.5C46.6,28,45.3,31.1,43,33.3z M42.1,16.9L42.1,16.9c-0.1,0-0.2,0-0.2,0.1c-0.1,0.1-0.1,0.3,0,0.5
	c2,1.9,3.1,4.6,3.1,7.3c0,2.8-1.1,5.4-3.1,7.3c-0.1,0.1-0.1,0.1-0.1,0.2c0,0.1,0,0.2,0.1,0.2c0.1,0.1,0.1,0.1,0.2,0.1h0
	c0.1,0,0.2,0,0.2-0.1c2.1-2,3.3-4.9,3.3-7.8c0-2.9-1.2-5.8-3.3-7.8C42.3,17,42.2,16.9,42.1,16.9z"/>
</svg>
